<?xml version="1.0" encoding="UTF-8" standalone="no"?>
<!-- Created with Inkscape (http://www.inkscape.org/) -->

<svg
   xmlns:dc="http://purl.org/dc/elements/1.1/"
   xmlns:cc="http://creativecommons.org/ns#"
   xmlns:rdf="http://www.w3.org/1999/02/22-rdf-syntax-ns#"
   xmlns:svg="http://www.w3.org/2000/svg"
   xmlns="http://www.w3.org/2000/svg"
   xmlns:sodipodi="http://sodipodi.sourceforge.net/DTD/sodipodi-0.dtd"
   xmlns:inkscape="http://www.inkscape.org/namespaces/inkscape"
   width="1833.338"
   height="800"
   id="svg3578"
   version="1.1"
   inkscape:version="0.48.4 r9939"
   sodipodi:docname="Новый документ 4">
  <defs
     id="defs3580" />
  <sodipodi:namedview
     id="base"
     pagecolor="#ffffff"
     bordercolor="#666666"
     borderopacity="1.0"
     inkscape:pageopacity="0.0"
     inkscape:pageshadow="2"
     inkscape:zoom="0.35"
     inkscape:cx="-302.5865"
     inkscape:cy="127.28664"
     inkscape:document-units="px"
     inkscape:current-layer="layer1"
     showgrid="false"
     fit-margin-top="0"
     fit-margin-left="0"
     fit-margin-right="0"
     fit-margin-bottom="0"
     inkscape:window-width="1920"
     inkscape:window-height="1018"
     inkscape:window-x="-8"
     inkscape:window-y="-8"
     inkscape:window-maximized="1" />
  <metadata
     id="metadata3583">
    <rdf:RDF>
      <cc:Work
         rdf:about="">
        <dc:format>image/svg+xml</dc:format>
        <dc:type
           rdf:resource="http://purl.org/dc/dcmitype/StillImage" />
        <dc:title></dc:title>
      </cc:Work>
    </rdf:RDF>
  </metadata>
  <g
     inkscape:label="Layer 1"
     inkscape:groupmode="layer"
     id="layer1"
     transform="translate(-83.300786,140.35118)">
    <g
       id="g3649"
       transform="matrix(3.1425146,0,0,3.1425146,-178.47316,-1413.3071)">
      <path
         sodipodi:nodetypes="cccccccccccccccccccccccccccccccccc"
         inkscape:connector-curvature="0"
         id="path3533"
         d="m 149.61602,408.51975 c -16.02643,0.40104 -5.25861,20.05324 -3.36177,28.80096 3.54406,14.23562 -3.44533,26.01892 -10.02862,37.78698 -5.63613,13.51801 -2.13048,30.18396 10.48414,38.47451 6.72811,7.54031 26.61072,5.69797 23.09163,18.35701 2.11185,12.94732 -16.93038,-0.45102 -24.5598,2.36768 -14.0339,-0.24958 -14.09674,20.27795 -7.50048,28.83781 4.46199,8.7265 15.21751,14.24409 5.37319,23.35949 -9.26531,15.77588 29.36489,-1.28279 39.13283,-4.71557 18.56742,-2.10346 20.36204,15.27273 38.63371,11.21805 8.05647,-1.95714 15.73103,-7.47621 18.61027,3.23178 4.56066,9.17277 12.0198,-0.0719 14.43095,-0.86146 8.02282,4.67848 13.17245,-5.32494 20.94405,-0.0136 11.19259,2.26868 12.26803,-13.49134 16.25005,-16.1563 13.21326,0.64837 27.323,0.056 38.1875,-8.5 10.68173,-7.27407 23.19323,-12.70147 31.4375,-22.90625 4.84919,-4.75627 2.37764,-21.34315 9.82778,-9.84748 5.34779,8.29778 25.77787,11.47681 21.36327,21.52221 -5.83156,11.24254 11.1605,17.80455 16.1527,10.01277 7.0183,3.24668 11.1169,-3.50231 17.3437,-3.53125 8.396,-10.0405 -1.5743,-20.78651 -7.8347,-28.63331 -9.455,-11.91545 -14.2723,-27.64926 -27.5716,-36.17919 -8.6209,-6.80004 -21.61136,-12.60488 -19.81235,-25.78125 -0.73569,-9.95658 0.64065,-19.71926 3.95168,-29.09668 0.17608,-2.7319 4.38295,-11.04617 1.97806,-10.20359 -3.99743,2.72509 -7.99486,5.45018 -11.99229,8.17527 -7.98217,-11.34169 -19.84886,-18.64046 -32.09456,-24.63927 -11.99286,-7.50027 -25.79131,-11.94115 -40.03044,-9.89193 -30.0146,3.91875 -58.28147,17.89998 -81.68791,36.83111 -14.44483,12.4995 -21.80884,30.99984 -36.31209,43.41889 -8.58499,0.98207 -19.51873,-8.34921 -10.49693,-16.8274 5.12321,-16.0381 13.32284,-33.71562 5.36809,-50.29137 -2.88253,-8.49825 -9.58353,-15.72544 -19.27756,-14.31863 z"
         style="fill:#ffccaa;fill-opacity:1;fill-rule:nonzero;stroke:none" />
      <path
         sodipodi:nodetypes="cccccccccccccscccccccccccccccccccc"
         inkscape:connector-curvature="0"
         id="path3355"
         d="m 296.02227,412.051 c -18.36684,0.007 -37.52281,1.40064 -53.75,10.87495 -16.08275,7.14542 -31.27627,17.00312 -41.77016,31.41687 -10.92768,11.57066 -15.61647,27.23961 -23.14887,40.96884 -6.21609,12.64481 -10.03897,26.94649 -8.17477,41.08304 -9.10521,-3.0038 -19.70931,-7.63779 -28.52777,-1.23393 -9.95837,4.69632 -9.96309,16.67496 -5.23609,25.14061 1.09546,7.39316 12.57565,15.233 9.171,20.85501 -7.33665,7.6119 -5.88098,23.10042 7.68656,16.64456 12.48793,-3.84954 21.76206,-13.24532 34.9801,-12.54603 10.34519,9.54596 28.20843,6.07892 40.17562,2.71607 7.4855,2.61262 12.14016,-9.16566 2.63551,-6.54635 -9.84921,1.35673 -19.35138,4.95944 -29.43761,3.90821 -3.05585,-0.11118 -9.15171,-9.76383 -12.21679,-9.74169 -12.55392,0.0907 -22.072,11.09194 -33.93658,15.41576 -4.72182,1.8107 -11.64034,3.23673 -6.47332,-3.66846 8.89701,-8.7255 -2.07411,-17.90343 -5.63313,-26.38126 -7.72888,-9.04702 -3.64335,-23.27874 9.16516,-23.17739 8.34431,-1.09243 19.78134,10.91183 25.64734,2.98989 -4.22338,-8.69317 -2.38276,-18.95027 -0.0937,-28.0625 4.45359,-15.11047 12.99023,-28.62335 19.46875,-42.90625 7.26281,-11.38508 16.35473,-21.99085 27.36148,-29.9316 10.86583,-6.94974 22.51051,-12.91422 34.56217,-17.46823 14.30919,-4.3084 29.57678,-4.77862 44.39624,-3.87811 12.20052,2.77093 25.58182,3.69465 36.05511,11.12169 7.54391,2.10028 10.63174,12.92006 17.43149,13.34561 3.58199,-10.17511 -12.5426,-16.17612 -19.42683,-21.68153 -11.11593,-4.99569 -23.52592,-6.96943 -35.50466,-9.00783 -1.79918,-0.13315 -3.60185,-0.23694 -5.4062,-0.24995 z m -122.3125,125.8125 c 0.58034,0.2029 -1.10624,-0.0441 0,0 z m -29.5,54.9375 c 0.93487,0.0359 -0.79847,0.23201 0,0 z"
         style="fill:#000000;fill-opacity:1;fill-rule:nonzero;stroke:none" />
      <path
         inkscape:connector-curvature="0"
         id="path3357"
         d="m 389.27222,499.6135 c -6.03183,2.11631 0.178,6.9967 1.8883,9.94757 7.3042,9.88164 13.9683,20.24394 19.9412,30.97872 1.9706,4.3867 3.212,9.33041 6.9744,12.6445 3.2009,3.36837 7.3935,6.33935 8.7894,10.96046 0.9668,5.24854 -5.0011,1.43545 -7.062,0.21875 -4.4508,-0.88964 -3.3767,5.64575 -4.8403,6.16345 -4.0383,0.49637 -7.3156,-3.32384 -11.1053,-2.33521 -2.9088,2.35659 -4.7621,8.18253 -9.7669,6.80265 -2.6022,-2.8515 -0.9609,-7.10448 -0.01,-10.3223 1.3446,-2.92282 1.9349,-6.54815 -0.158,-9.29682 -5.6274,-9.55549 -12.15818,-18.68901 -20.08632,-26.47518 -2.51945,-1.94193 -4.90223,-4.2923 -7.8865,-5.46189 -4.8968,-0.29087 -3.82275,6.29224 0.18072,7.03676 6.91674,4.84826 11.71377,11.9904 16.72458,18.64249 1.8965,3.94354 6.83122,7.71646 6.09672,12.15241 -2.08776,5.26871 -3.66195,11.76867 -0.1646,16.81637 3.4298,4.53315 10.3553,3.6364 14.1998,0.13503 2.0864,-1.57066 3.0565,-4.71017 5.9228,-2.61441 3.8663,0.83 9.3888,2.25852 11.545,-2.30384 1.1514,-2.92214 5.6101,1.35985 8.22,-0.96598 4.9235,-2.06764 5.1006,-8.75859 2.7514,-12.81355 -2.5998,-5.5534 -8.2681,-8.62259 -11.5444,-13.63958 -1.8684,-3.79751 -2.9368,-7.96004 -5.292,-11.53231 -6.0696,-10.30745 -12.6273,-20.31886 -19.718,-29.95314 -1.3565,-1.92502 -2.8859,-4.85931 -5.6046,-4.78495 z"
         style="fill:#000000;fill-opacity:1;fill-rule:nonzero;stroke:none" />
      <path
         inkscape:connector-curvature="0"
         id="path3359"
         d="m 249.58477,531.801 c -5.40804,1.26719 -1.22194,6.97719 0.10364,9.951 3.25896,6.19627 5.76826,12.78533 9.31401,18.82338 4.50644,6.6582 12.09488,10.46581 16.48917,17.24181 2.04997,2.66666 3.84711,5.51236 5.53068,8.42131 -1.5487,2.79554 -4.73877,6.43392 -7.53385,2.85877 -2.19027,-3.1605 -7.52476,-2.26764 -7.67462,1.83472 -0.59116,3.41135 -2.39043,4.07892 -5.12201,1.80062 -3.13836,-1.27161 -4.84082,-5.75081 -8.56457,-5.2814 -3.29112,1.22551 -3.57759,5.77081 -7.07931,6.88031 -3.16798,1.80788 -1.05513,-4.12237 -1.20547,-5.81859 0.63233,-3.88754 5.14975,-6.54005 4.15873,-10.79492 -0.8826,-2.92887 -2.80518,-5.42563 -3.95984,-8.2541 -3.70588,-6.23745 -5.82417,-13.19563 -8.57378,-19.8624 -2.0256,-4.33632 -4.14313,-8.63334 -6.32033,-12.89431 -2.763,-4.36372 -8.11356,1.35589 -4.41668,4.4887 3.15096,6.33527 6.3203,12.68012 8.54168,19.41755 2.00016,5.44824 4.91417,10.47429 7.47506,15.65544 1.07921,1.77491 2.14115,3.09995 0.25879,4.44507 -2.75355,3.54038 -3.62966,8.06764 -3.57765,12.46194 -0.80283,4.03274 2.21455,8.57684 6.66663,7.64393 3.78124,-0.57557 7.19593,-2.97583 9.36462,-6.08143 3.26219,2.78982 7.18263,5.73247 11.68954,5.48246 3.13315,-0.12803 4.49117,-4.35872 6.05134,-5.41946 2.30682,1.88688 5.6346,3.28691 8.34507,1.31509 3.41138,-2.20182 6.62623,-5.40665 7.56716,-9.46682 0.18428,-3.12488 -2.40684,-5.43537 -3.72233,-8.06252 -3.5523,-5.49475 -7.82537,-10.52468 -12.92745,-14.64356 -3.37819,-2.92456 -6.78014,-6.05505 -8.43421,-10.32271 -3.15339,-6.85023 -6.56785,-13.57938 -9.7489,-20.41345 -0.55937,-0.91709 -1.61367,-1.50672 -2.69512,-1.40643 z m 31.6875,53.75 c 0.0496,0.72371 -0.28842,0.10343 0,0 z m -37.78125,9.8125 c 0.17862,0.0623 -0.085,0.50495 0,0 z"
         style="fill:#000000;fill-opacity:1;fill-rule:nonzero;stroke:none" />
      <path
         inkscape:connector-curvature="0"
         id="path3361"
         d="m 148.36602,405.20725 c -4.95135,-0.85244 -9.51547,2.52398 -10.19271,7.52729 -1.09215,5.39997 4.28176,8.82638 6.63021,13.03516 3.73941,5.15038 6.5438,11.48948 5.41154,17.98095 0.0905,5.44221 -2.52936,10.31599 -6.41551,13.96161 -5.81949,6.25796 -9.69444,14.51902 -9.40006,23.18909 0.0627,8.01363 -0.80012,16.71735 3.66903,23.83855 3.09336,5.82419 8.10399,10.5725 14.29504,12.9546 5.59501,2.54222 11.14216,5.3909 16.97308,7.28061 5.58851,-0.83387 2.02131,-7.25535 -2.18732,-7.19178 -6.14537,-2.75606 -12.5559,-5.16213 -18.18502,-8.8924 -5.40849,-4.68586 -8.88409,-11.72119 -8.52016,-18.95778 -0.14635,-7.93168 -0.80883,-16.62497 4.1355,-23.41312 3.73629,-5.79843 10.12383,-10.22158 10.98284,-17.53836 1.43385,-7.10117 1.21815,-14.77538 -2.48229,-21.19521 -2.4246,-4.82203 -6.33823,-9.14573 -9.12047,-13.42301 0.3169,-5.5505 5.88319,-2.60872 9.75005,-2.5625 4.59698,1.54628 7.39317,5.93279 10.22588,9.57073 2.75783,7.85256 2.48496,16.35169 2.14519,24.54992 -0.54186,6.52518 -2.38453,12.9087 -5.77732,18.5356 -2.72273,5.56556 -6.5493,11.62655 -4.75955,18.07369 2.10787,7.38282 9.44328,11.57232 16.2596,13.89506 3.10694,3.03774 11.48088,1.01125 7.54274,-3.88277 -4.56936,-1.42083 -9.49975,-2.7393 -13.4518,-5.72207 -3.73376,-2.29055 -6.14343,-7.19076 -4.05969,-11.36391 2.9095,-7.85487 8.33649,-14.77358 9.42266,-23.29004 1.31664,-7.48386 1.23816,-15.16229 0.61629,-22.71045 -0.92037,-5.16309 -1.41665,-10.91343 -5.45881,-14.74337 -3.59935,-4.71488 -8.48322,-9.17621 -14.76926,-9.28719 -1.08941,-0.11995 -2.18402,-0.19309 -3.27968,-0.2189 z"
         style="fill:#000000;fill-opacity:1;fill-rule:nonzero;stroke:none" />
      <path
         id="path3365"
         d="m 290.89727,418.4885 c -7.16709,1.87247 -2.47298,11.58038 -4.625,16.875 -1.21013,9.60256 -0.4526,19.28634 -1.1875,28.90625 -1.83801,7.61478 -7.45333,13.96711 -8.03125,22 -0.46036,9.08128 0.38024,18.19627 0.6875,27.28125 1.25579,9.27484 2.13122,20.27808 10.375,26.28125 5.83732,4.35981 12.25232,8.58693 19.46875,10.0625 8.53912,0.17407 16.86378,-2.11737 24.96875,-4.46875 2.11769,-2.77685 1.17136,-4.28994 -0.78125,-4.90625 0.19035,-0.10818 0.37996,-0.23743 0.5625,-0.375 2.76308,-5.08449 -4.55342,-5.29391 -7.8125,-5.5625 -3.60438,-1.02417 -7.40267,-0.47339 -11,-1.53125 -4.2388,-0.73404 -7.57999,-3.66529 -11.15625,-5.84375 -3.63632,-2.10964 -7.12268,-4.51352 -10.09375,-7.5 -0.98704,-1.21948 -1.67652,-4.75107 -1.125,-6.90625 0.91916,-0.61402 4.83421,-2.40598 7.09375,-2.625 8.56252,-0.79663 17.27092,2.36473 25.71875,-0.21875 3.74072,-0.848 7.1843,-2.62269 9.90625,-5.34375 1.31497,-1.52375 2.37834,-2.57177 3.5,-0.28125 3.05237,3.21216 7.11143,5.97706 11.75,5.65625 5.4516,-0.10544 11.52538,0.92024 16.1875,-2.625 4.41268,-1.17374 2.55457,-8.33088 -1.78125,-6.15625 -2.2609,2.08818 -5.2713,3.14336 -8.34375,2.78125 -3.50052,-0.30875 -7.58572,0.92576 -10.59375,-1.34375 -1.90714,-0.95858 -3.06875,-2.73001 -4.375,-4.34375 1.53314,0.71611 3.35519,0.64145 4.96875,0.25 2.519,-0.77678 4.27202,-3.06091 5.25,-5.40625 0.89518,-2.72694 0.67583,-5.80008 -0.75,-8.3125 -1.11385,-2.11172 -2.92249,-3.87355 -5.1875,-4.6875 -3.13042,-1.47385 -6.56906,-2.3702 -10.03125,-2.4375 -0.4946,-0.01 -0.9734,0.007 -1.46875,0.0312 -0.24595,0.002 -0.50407,0 -0.75,0 -2.52084,-0.0811 -5.2115,0.19272 -7.28125,1.78125 -1.84408,1.48908 -3.04622,3.70976 -3.15625,6.09375 -0.10639,2.48067 -0.0134,5.10736 1.03125,7.40625 0.90011,2.02096 2.87551,3.28297 4.9375,3.875 1.4245,0.40382 2.91932,0.64981 4.40625,0.71875 -1.27616,1.41107 -2.38594,3.11154 -4.0625,4.03125 -2.73908,2.10768 -6.36904,2.84743 -9.75,3.21875 -8.6349,0.75975 -17.65191,-2.81174 -26,0.75 -3.63077,1.0606 -7.5154,3.72335 -7.40625,7.9375 -0.13468,4.40463 1.00361,9.32902 4.8125,12 4.5813,4.21868 10.18573,7.11564 15.375,10.5 4.66468,3.03308 10.36309,3.65415 15.78125,3.9375 1.46132,0.0956 3.04027,0.51593 4.625,0.84375 -0.52125,0.18687 -1.00818,0.40026 -1.40625,0.65625 -5.81341,1.48855 -11.99961,3.12426 -17.96875,1.96875 -6.87071,-3.21245 -14.48358,-6.66081 -18.625,-13.34375 -5.15814,-12.59356 -3.9247,-26.50703 -4.75,-39.8125 -0.43589,-8.44519 5.29166,-15.21705 7.71875,-22.875 1.87591,-9.11056 0.2683,-18.53815 1.40625,-27.75 0.79223,-3.71803 0.14465,-11.64032 1.75,-12.53125 5.16429,4.48617 10.49235,8.8941 14.6875,14.3125 7.65937,5.1226 17.00032,6.68314 25.65625,9.4375 6.73695,1.76635 13.61611,3.37505 20.59375,3.53125 6.05192,-1.43316 8.26804,-8.42372 13.5,-11.3125 3.48587,-2.18226 10.43289,-7.13568 7.125,0.15625 -1.7735,6.21271 -3.64437,12.48048 -6.96875,18.0625 -1.38717,8.13337 0.38448,16.52701 -1.125,24.65625 1.85804,6.77721 8.17986,0.20155 6.59375,-4.34375 0.11619,-6.09125 -0.2313,-12.20231 0.1875,-18.28125 4.15865,-7.24743 6.54333,-15.48947 8.1875,-23.65625 2.44647,-5.7409 -3.4457,-11.53479 -8.34375,-6.53125 -7.04757,3.20633 -13.59323,7.61808 -18.25,13.90625 -2.97138,3.31264 -10.19889,-0.37724 -15,-0.71875 -8.99416,-2.47076 -18.17115,-4.63602 -26.6875,-8.5 -5.18827,-4.82568 -10.07042,-10.4098 -15.75,-14.90625 -2.14847,-1.76294 -4.28183,-4.1301 -7.1875,-4.46875 z m 2.09375,4.0625 c 0.27752,0.19284 -0.43335,1.0443 0,0 z m 86.28125,14.4375 c 0.18391,0.108 -0.51147,0.1421 0,0 z m -44.65625,46.71875 c 1.07668,0.0231 2.13297,0.12914 3.1875,0.40625 1.97137,0.39379 3.77996,1.31027 5.59375,2.125 0.71072,0.75395 1.73112,2.29479 1.59375,3.6875 0.0716,1.20876 -1.08134,3.08798 -1.96875,2.9375 -0.87386,-0.01 -1.86277,-0.51308 -2.8125,0.0312 -1.41532,0.59363 -1.9871,2.33319 -1.5625,3.71875 -0.20685,-0.18449 -0.43089,-0.33801 -0.65625,-0.5 0.65411,-0.97856 0.75832,-2.33165 0.0625,-3.34375 -0.74369,-1.26532 -2.36055,-1.52786 -3.6875,-1.25 -1.96904,0.22161 -3.97352,0.039 -5.8125,-0.71875 -0.83316,-0.80443 -0.64601,-2.21506 -0.78125,-3.3125 -0.0458,-1.15081 -0.11633,-2.56443 0.9375,-3.3125 0.4613,-0.1942 1.21434,-0.38559 1.9375,-0.4375 0.24105,-0.0173 0.49994,-0.016 0.71875,0 1.07626,0.005 2.17332,-0.0544 3.25,-0.0312 z"
         style="fill:#000000;fill-opacity:1;fill-rule:nonzero;stroke:none"
         inkscape:connector-curvature="0" />
      <path
         sodipodi:nodetypes="ccccccccccccccccccccc"
         inkscape:connector-curvature="0"
         id="path3371"
         d="m 305.80352,471.176 c -1.66472,-0.11011 -3.26189,1.28814 -3.18198,3 -0.0799,1.71186 1.51726,3.11011 3.18198,3 0.87759,-0.014 2.58906,-0.0308 2.94067,0.14354 -1.85111,0.65016 -3.73665,1.36576 -5.31655,2.54896 -1.61146,1.33372 -1.07322,4.18808 0.84763,4.95097 1.27025,0.6046 2.61801,-0.0653 3.71234,-0.72326 1.71908,-0.87387 3.56314,-1.59266 5.50341,-1.73276 -3.10425,2.1565 -6.12469,4.47408 -8.79152,7.15965 -1.28477,1.35001 -0.85132,3.75417 0.80502,4.6019 1.38662,0.86911 3.12707,0.17861 4.08017,-0.99544 2.85548,-2.73972 6.1073,-5.00552 9.34429,-7.26153 1.40718,-0.80924 2.08298,-2.74763 1.15904,-4.16042 -0.34696,-0.99911 -1.82583,-1.26353 -2.25712,-1.69367 0.0399,-1.23278 1.48933,0.39775 2.24579,0.40604 2.36048,0.9403 4.96454,0.76377 7.45589,0.77073 1.86051,-0.0411 3.25745,-2.04277 2.68479,-3.81158 -0.37102,-1.60593 -2.11348,-2.35632 -3.62886,-2.1708 -6.88992,2.38746 -12.75895,-3.61816 -18.4676,-4.02201 -0.77199,-0.0311 -1.54524,-0.0354 -2.31739,-0.0103 z"
         style="fill:#000000;fill-opacity:1;fill-rule:nonzero;stroke:none" />
      <path
         sodipodi:nodetypes="ccccccccccccccc"
         inkscape:connector-curvature="0"
         id="path3377"
         d="m 359.77227,469.20725 c -2.61585,2.90398 -8.98607,6.33498 -12.18479,5.77433 -1.06068,1.11113 -1.01089,3.01639 0.11198,4.06867 0.62532,0.42777 1.04487,0.73945 0.92008,1.56179 0.20786,1.18754 1.24322,1.97217 2.28734,2.42253 2.47122,1.27277 4.72382,2.97353 7.31867,3.99973 1.43141,0.57259 3.18969,-0.16954 3.75558,-1.60682 0.67106,-1.39336 0.0264,-3.19005 -1.36314,-3.86162 -0.91645,-0.39047 -1.80864,-0.83331 -2.65822,-1.35861 1.76372,-0.0104 3.52864,0.0215 5.29157,-0.0172 1.54093,-0.0536 2.85358,-1.43851 2.79666,-2.98279 0.0569,-1.54428 -1.25573,-2.9292 -2.79666,-2.98279 -0.50411,-0.0322 -1.15237,0.11687 -0.51316,-0.45993 0.98647,-1.50517 0.27787,-3.83845 -1.48043,-4.38815 -0.47482,-0.16605 -0.98606,-0.20998 -1.48548,-0.16914 z"
         style="fill:#000000;fill-opacity:1;fill-rule:nonzero;stroke:none" />
      <path
         inkscape:connector-curvature="0"
         d="m 293.41984,492.5712 c -2.36489,-1.49921 -4.76564,-2.97219 -7.37411,-4.01799 -0.8505,-0.34098 -1.72713,-0.61279 -2.5907,-0.91918 -7.91255,-2.254 -16.20996,-2.49034 -24.38266,-2.53039 -7.09497,0.28787 -14.15692,1.04852 -21.19426,1.96614 -0.54293,0.0907 -1.08587,0.18138 -1.62881,0.27207 -4.18543,0.69438 -5.16743,-5.22472 -0.982,-5.9191 l 0,0 c 0.61173,-0.10087 1.22345,-0.20175 1.83518,-0.30262 7.30477,-0.95211 14.63624,-1.73972 22.00193,-2.0164 8.85146,0.051 17.83333,0.34584 26.37926,2.88365 1.02127,0.37076 2.05728,0.70321 3.06382,1.11229 2.84085,1.15456 5.47091,2.74662 8.05234,4.38354 3.59775,2.24859 0.41776,7.33658 -3.17999,5.08799 z"
         id="path3383"
         style="fill:#000000;fill-opacity:1;fill-rule:nonzero;stroke:none" />
      <path
         inkscape:connector-curvature="0"
         d="m 284.48896,499.81997 c -4.69716,-0.61117 -9.44291,-0.67591 -14.17163,-0.78732 -7.2362,0.10398 -14.42623,0.93517 -21.60818,1.7455 -4.07993,0.43074 -8.12278,1.16819 -12.10626,2.14386 -0.59894,0.20649 -1.20854,0.37564 -1.76056,0.69089 -3.79193,1.90297 -6.48313,-3.45963 -2.69121,-5.3626 l 0,0 c 0.98082,-0.46986 1.97319,-0.88249 3.0306,-1.15755 4.23182,-1.02756 8.52148,-1.82266 12.85473,-2.27677 7.45185,-0.84078 14.91361,-1.69779 22.4225,-1.78166 4.88078,0.11547 9.77855,0.1883 14.62704,0.81543 4.22158,0.42216 3.62456,6.39238 -0.59703,5.97022 z"
         id="path3385"
         style="fill:#000000;fill-opacity:1;fill-rule:nonzero;stroke:none" />
      <path
         inkscape:connector-curvature="0"
         d="m 366.30397,488.81721 c 7.4357,-3.30221 15.14187,-5.88104 22.90115,-8.29687 8.9712,-2.66021 18.0589,-5.07412 27.3566,-6.2489 2.2692,-0.26656 4.5368,-0.36775 6.8067,-0.1083 4.21,0.52529 3.4671,6.47912 -0.7428,5.95383 l 0,0 c -1.7687,-0.2561 -3.5491,-0.0437 -5.3192,0.10808 -8.9486,1.10664 -17.6837,3.48998 -26.3188,6.02439 -7.72383,2.40143 -15.37601,4.99911 -22.78628,8.25987 -4.02492,1.34164 -5.92229,-4.35046 -1.89737,-5.6921 z"
         id="path3387"
         style="fill:#000000;fill-opacity:1;fill-rule:nonzero;stroke:none" />
      <path
         inkscape:connector-curvature="0"
         d="m 375.49681,492.83135 c 8.78365,-0.91801 17.56511,-1.85393 26.32031,-3.01307 9.3004,-1.26923 18.5733,-2.7312 27.8802,-3.95311 4.2066,-0.55216 4.9875,5.39681 0.7809,5.94897 l 0,0 c -9.305,1.22113 -18.5756,2.68511 -27.8743,3.95233 -8.8842,1.17411 -17.79415,2.13019 -26.70799,3.05159 -4.23325,0.28222 -4.63236,-5.70449 -0.39912,-5.98671 z"
         id="path3389"
         style="fill:#000000;fill-opacity:1;fill-rule:nonzero;stroke:none" />
      <path
         inkscape:connector-curvature="0"
         id="path3430"
         d="m 289.35049,572.84263 c 5.3742,-0.27785 10.69424,-1.04735 16.01404,-1.81584 3.8644,-0.0979 7.562,-1.39742 11.418,-1.6148 8.72871,-1.80391 17.69406,-3.72918 25.32524,-8.56541 5.55929,-3.01732 9.72579,-8.09545 12.69312,-13.58216 2.27958,-3.25739 7.19041,0.74 4.76972,3.72633 -3.46047,6.26744 -8.47028,11.81843 -14.8092,15.26151 -8.08248,5.00796 -17.48101,7.13596 -26.68629,9.01288 -4.36278,0.39942 -8.5948,1.6688 -12.98232,1.83637 -5.3779,0.80735 -10.79799,1.62285 -16.23606,1.67136 -3.4528,-0.63695 -2.97839,-5.83223 0.49375,-5.93024 z"
         style="fill:#000000;fill-opacity:1;fill-rule:nonzero;stroke:none" />
      <path
         inkscape:connector-curvature="0"
         id="path3435"
         d="m 356.24102,516.70725 c -8.46708,7.22224 11.05886,8.13889 15.65505,10.06694 44.08745,9.71904 89.10925,14.3021 133.88145,19.67602 15.0109,1.55642 30.0395,3.65752 45.0916,4.37605 6.1559,-9.60864 -15.1176,-5.53859 -20.7996,-7.75201 -50.4008,-5.67445 -100.9801,-10.84073 -150.76901,-20.71405 -7.75488,-1.58744 -15.3336,-4.04525 -23.05949,-5.65295 z m -34.21875,3.8125 c -8.07415,6.44355 9.76132,12.3008 13.60672,17.45083 15.9728,12.0414 31.86322,24.45452 49.05389,34.66286 9.58184,-4.72984 -8.01396,-10.6572 -11.65811,-14.68027 -17.1107,-11.71802 -33.47656,-24.48451 -49.82209,-37.2232 l -1.18041,-0.21022 z m 26.8125,7.25 c -8.12212,5.9044 8.08969,9.82379 12.23769,12.96756 65.10486,30.86844 136.82136,42.46737 205.85536,61.21389 8.8585,4.59365 8.6414,-7.63808 -0.1337,-6.20891 -68.0202,-18.50749 -138.6829,-29.93991 -202.87186,-60.27942 -5.19102,-2.19567 -9.83475,-5.86958 -15.08749,-7.69312 z m -14.65625,11.3125 c -7.88471,6.15759 8.90357,13.61329 12.01063,19.61398 18.28379,18.18961 36.92592,36.17086 57.36437,51.94852 12.2695,0.0169 -4.35,-11.17796 -8.3377,-14.28269 -20.90427,-17.9866 -40.54651,-37.44528 -59.85689,-57.05397 l -1.18041,-0.22584 z m 233.5313,8.21875 c -10.984,5.99111 16.6431,11.83321 9.7956,1.87098 -3.1169,-1.04363 -6.5329,-1.52497 -9.7956,-1.87098 z m -142.6876,40.3125 c -10.5032,4.01691 13.6054,17.63433 8.3126,5.625 -2.7162,-1.77468 -5.0092,-5.04638 -8.3126,-5.625 z m 161.9688,11.34375 c -9.3823,3.50484 7.3187,11.30993 3.9539,2.00886 -1.0648,-0.98272 -2.4378,-1.99071 -3.9539,-2.00886 z m -173.7812,16.5 c -9.3832,4.20222 12.7716,18.30057 10.3946,6.91304 -3.5357,-2.08658 -6.4421,-5.92194 -10.3946,-6.91304 z"
         style="fill:#a18a08;fill-opacity:1;fill-rule:nonzero;stroke:none" />
      <path
         inkscape:connector-curvature="0"
         id="path3457"
         d="m 183.42852,615.39475 c -1.81754,-0.35926 -2.44086,1.68402 -3.63912,2.1754 -2.2701,0.60214 -4.51103,1.40125 -6.59602,2.48511 -2.35688,1.58963 -3.29371,4.67454 -2.85861,7.40194 -0.46509,1.667 -0.25499,3.46039 -0.12333,5.16807 0.25931,2.38125 2.52883,3.78545 4.64076,4.37503 3.55541,1.21482 7.27799,1.86149 10.98257,2.42565 3.30529,0.20624 6.59399,0.71881 9.91518,0.5661 2.70251,-0.12368 5.47811,0.313 8.11807,-0.4163 2.00424,-0.70706 4.0332,-2.20073 4.2207,-4.48335 0.27424,-2.62167 0.13017,-5.27165 0.12903,-7.90312 0.29316,-1.78933 -1.64673,-2.52596 -1.72366,-4.1031 -0.84403,-2.70459 -3.64483,-4.00993 -6.03411,-5.08558 -3.69054,-1.55288 -7.62846,-2.65081 -11.66325,-2.58732 -1.78924,-0.0344 -3.5788,-0.0163 -5.36821,-0.0185 z m 4.21875,6.03125 c 2.87112,-0.13028 5.73264,0.34157 8.43172,1.31752 1.55629,0.57159 3.19906,1.0948 4.53703,2.08873 -1.14989,1.2402 -2.88191,1.81357 -4.47984,2.2672 -1.58835,0.2545 -3.22294,0.035 -4.83129,0.10794 -4.74854,-0.10782 -9.5605,0.34376 -14.25221,-0.57282 -1.40083,0.23794 -0.44057,-1.63403 -0.74916,-1.45857 2.97551,-1.40011 6.18783,-2.20908 9.4375,-2.65625 0.7334,-0.14036 1.42744,-0.5148 1.90625,-1.09375 z m -11.40625,5.03125 c 0.3067,0.21882 -0.0692,0.0971 0,0 z m 26,4.59375 c -0.0952,1.24526 0.55116,3.39329 -1.44965,2.9362 -3.90085,-0.0461 -7.81694,0.18758 -11.69679,-0.32968 -1.44471,-0.11642 -2.90096,-0.13542 -4.32221,-0.45032 3.77953,-0.0248 7.564,0.0444 11.34061,-0.0297 2.16254,-0.26192 4.23658,-1.06749 6.12804,-2.12647 z"
         style="fill:#000000;fill-opacity:1;fill-rule:nonzero;stroke:none" />
      <path
         id="path3483"
         d="m 89.928521,608.76975 c -4.68426,0.67473 -2.45495,7.18286 1.76078,6.45882 8.708959,1.73771 17.643519,1.8295 26.487869,1.94781 5.03707,-0.83987 1.96781,-7.80132 -2.37775,-6.03333 -8.66227,-0.0839 -17.417529,-0.43598 -25.870899,-2.3733 z"
         style="fill:#a18a08;fill-opacity:1;fill-rule:nonzero;stroke:none"
         inkscape:connector-curvature="0" />
      <path
         id="path3481"
         d="m 113.11602,621.83225 c -9.20213,0.18029 -18.467999,0.0344 -27.590889,1.35617 -2.01152,2.82274 -1.52656,7.12402 2.90139,6.35997 3.01001,0.39024 7.41769,-0.22529 5.22075,4.12756 -2.36155,1.20626 -1.82658,6.99038 2.48019,6.04669 6.330079,0.47235 12.702739,0.45495 19.023639,0.7759 0.63566,-3.01155 1.5205,-7.03387 -2.7987,-6.95468 0.0199,-0.0469 3.98279,-1.72358 2.6212,-4.16636 -1.8259,-2.06318 3.54116,-4.01679 0.38964,-6.76593 -0.60324,-0.55464 -1.4405,-0.79265 -2.24722,-0.77932 z"
         style="fill:#a18a08;fill-opacity:1;fill-rule:nonzero;stroke:none"
         inkscape:connector-curvature="0" />
      <path
         id="path3477"
         d="m 115.14727,634.51975 c 0.31898,0.0413 -0.24476,0.0671 0,0 z"
         style="fill:#a18a08;fill-opacity:1;fill-rule:nonzero;stroke:none"
         inkscape:connector-curvature="0" />
      <path
         id="path3475"
         d="m 160.86602,637.20725 c 1.27229,-0.24227 0.2146,0.24847 0,0 z"
         style="fill:#a18a08;fill-opacity:1;fill-rule:nonzero;stroke:none"
         inkscape:connector-curvature="0" />
      <path
         id="path3473"
         d="m 131.86602,648.176 c -0.32037,0.49015 -0.59659,0.18017 0,0 z"
         style="fill:#a18a08;fill-opacity:1;fill-rule:nonzero;stroke:none"
         inkscape:connector-curvature="0" />
      <path
         id="path3463"
         d="m 181.11602,650.051 -0.375,0.21875 0.375,-0.21875 z"
         style="fill:#a18a08;fill-opacity:1;fill-rule:nonzero;stroke:none"
         inkscape:connector-curvature="0" />
      <path
         inkscape:connector-curvature="0"
         id="path3453"
         d="m 90.491021,601.176 c -3.10075,-0.0236 -4.41646,3.26723 -5.03755,5.79732 -0.77855,2.23616 -1.59473,4.46938 -1.7437,6.85893 -1.07605,6.57876 0.0599,13.33139 2.36948,19.52563 1.25572,2.9527 2.47197,6.08818 4.72087,8.43406 2.33027,1.80503 5.43119,1.97296 8.19406,2.68239 2.793809,0.61448 5.634939,0.84947 8.482729,0.99171 3.47455,0.45524 6.96589,0.69613 10.43199,1.2145 2.865,-0.38184 5.2804,0.95522 8.06269,1.1577 3.67869,0.27089 7.18171,-1.87571 8.87509,-5.09479 2.18106,-3.23213 2.88917,-7.18748 2.63627,-11.02736 -0.27271,-4.48011 -1.11734,-8.90911 -1.86467,-13.32865 -0.7963,-3.43086 -1.84223,-6.97324 -4.02512,-9.79941 -1.57543,-2.01731 -3.43411,-3.82595 -6.33922,-3.55062 -4.40302,-0.54906 -8.83227,-0.84642 -13.23833,-1.30618 -3.51833,-0.37123 -7.01707,-0.89711 -10.52444,-1.34506 -3.253639,-0.2673 -6.515789,-0.50514 -9.715709,-1.16869 -0.42644,-0.0435 -0.85617,-0.0611 -1.28444,-0.0415 z m 0,5.96875 c 0.35344,-0.10858 0.0488,0.12023 0,0 z m 1.15625,0.125 c 4.82291,0.98803 9.790019,0.90517 14.624999,1.84375 3.70008,0.38189 7.37332,0.97015 11.09157,1.13119 1.79228,0.32048 5.53595,-0.15704 2.75109,2.01599 -3.36912,4.14462 -5.00334,9.53552 -4.67551,14.85733 -0.15798,3.86472 1.52964,7.51013 3.99059,10.40482 0.32837,1.31682 4.7414,3.84492 1.45151,3.25216 -3.49209,0.0751 -6.89491,-0.87909 -10.3783,-0.97748 -3.07852,-0.55124 -6.22506,-0.32802 -9.28464,-1.00585 -2.204639,-0.39845 -4.427569,-0.86644 -6.540059,-1.58441 -3.29584,-5.20208 -5.10455,-11.31403 -5.38148,-17.45083 0.0569,-3.55541 0.32253,-7.18149 1.74625,-10.48315 0.20387,-0.66733 0.46039,-1.31914 0.60398,-2.00352 z m 35.843749,5.84375 c 2.61658,5.03064 2.86269,10.78518 3.80626,16.27059 0.44424,3.55443 0.52909,7.4824 -1.7338,10.49167 -0.74902,1.77484 -2.91675,2.28656 -4.60366,1.80034 3.43386,-0.5541 3.03078,-5.03817 0.36074,-6.41374 -1.86749,-2.31589 -4.10661,-4.77705 -3.89997,-7.98499 -0.14257,-3.42653 0.40341,-6.95653 2.37327,-9.84587 1.02022,-1.59279 2.2812,-3.06428 3.69716,-4.318 z"
         style="fill:#000000;fill-opacity:1;fill-rule:nonzero;stroke:none" />
      <path
         sodipodi:nodetypes="cccccccccccccccc"
         inkscape:connector-curvature="0"
         id="path3479"
         d="m 147.77673,638.02421 c -9.6428,1.01901 -5.91882,-2.99858 -15.69196,-3.31696 -5.17132,-0.0454 -3.15571,7.78944 1.51664,6.02269 3.42211,-0.17165 -3.3117,1.19523 -4.42289,2.07106 -5.71434,2.81446 -1.09934,8.93932 3.40298,9.74973 4.25483,2.1387 9.4763,1.89834 13.62827,3.46902 3.94744,1.53475 8.31431,1.48288 12.40625,2.0625 4.67661,2.26834 10.06504,1.33042 15.08757,1.56653 3.25892,-0.27393 15.16851,0.7319 17.03743,-2.61564 1.51173,-1.7998 1.70161,-6.18297 -2.45089,-7.73214 -4.3957,-0.58547 -12.46204,-2.48886 -16.8377,-3.43501 -6.46052,-0.87164 -14.15856,0.85087 -20.61424,1.88923 -2.28073,3.24395 -6.63552,1.16857 -10.14225,0.96521 -1.96901,-0.47292 -8.43317,-1.71217 -3.29309,-2.41622 8.41808,-2.38864 9.64104,0.73279 17.7544,-2.60504 4.3599,-1.74164 -2.46875,-6.05225 -7.38052,-5.67496 z"
         style="fill:#a18a08;fill-opacity:1;fill-rule:nonzero;stroke:none" />
      <path
         id="path3485"
         d="m 650.36602,444.9885 c -1.3123,0.0329 -2.5928,0.91543 -2.875,2.75 -0.7774,4.85514 -1.1367,9.75382 -1.4688,14.65625 -0.2862,4.66006 -0.4107,9.33208 -0.4687,14 -0.1984,2.49834 -0.1636,5.04251 -0.4687,7.53125 -0.1141,0.73878 -0.018,0.43761 -0.1876,0.875 -1.1527,4.08303 4.6285,5.70803 5.7813,1.625 0.3206,-1.24469 0.1953,-0.64307 0.375,-1.84375 0.2958,-2.69631 0.3253,-5.38791 0.5,-8.09375 0.057,-4.55786 0.1904,-9.13726 0.4687,-13.6875 0.3196,-4.73261 0.6247,-9.46938 1.375,-14.15625 0.363,-2.35874 -1.344,-3.6985 -3.0312,-3.65625 z m -18.6562,2.46875 c -1.3126,0.0165 -2.6011,0.8566 -2.9063,2.6875 -0.8989,5.81678 -1.6778,11.65963 -2.4063,17.5 -0.5671,5.61666 -1.4155,11.21366 -2.125,16.8125 -0.2211,1.71578 -0.3634,3.42804 -0.4374,5.15625 -0.1782,4.2389 5.8217,4.48889 6,0.25 0.064,-1.56053 0.2082,-3.10701 0.4062,-4.65625 0.7094,-5.6027 1.5578,-11.192 2.125,-16.8125 0.7183,-5.75889 1.458,-11.51426 2.3438,-17.25 0.3923,-2.35402 -1.3125,-3.70866 -3,-3.6875 z m 31.9687,4.625 c -1.5,0 -3,1.06618 -3,3.1875 0.085,3.50654 -0.1361,6.99759 -0.625,10.46875 -0.6057,3.97027 -1.4226,7.88648 -1.9063,11.875 -0.2591,2.28081 -0.3544,4.5824 -0.4374,6.875 -0.1523,4.2399 5.8478,4.45866 6,0.21875 0.076,-2.12496 0.1685,-4.26072 0.4062,-6.375 0.472,-3.95391 1.3244,-7.8434 1.9062,-11.78125 0.511,-3.74557 0.7523,-7.49848 0.6563,-11.28125 0,-2.12132 -1.5,-3.1875 -3,-3.1875 z m -217.2187,7.96875 c -2.3693,0.23527 -3.3081,3.05175 -4.0626,4.96875 -2.9593,8.96648 -5.658,18.01093 -8.125,27.125 -0.5937,0.21103 -1.1852,0.42015 -1.7812,0.625 -3.6916,0.8519 -3.0067,5.60919 0.125,5.9375 -1.1173,4.3968 -2.234,8.78864 -3.3438,13.1875 -1.3416,4.02492 4.346,5.93118 5.6876,1.90625 1.4664,-5.68545 2.8825,-11.40674 4.3437,-17.09375 3.3081,-1.21361 6.588,-2.50075 9.9063,-3.6875 0.1543,1.07349 0.3113,2.14571 0.4687,3.21875 0.5886,3.44471 1.113,6.95243 2.3125,10.25 1.4982,3.96932 7.1231,1.84432 5.625,-2.125 -1.1589,-2.84446 -1.3597,-6.02956 -2,-9 -0.2125,-1.44735 -0.418,-2.89561 -0.625,-4.34375 0.4085,-0.14558 0.8095,-0.29387 1.2188,-0.4375 4.0032,-1.40534 2.0343,-7.06159 -1.9688,-5.65625 -0.031,0.0109 -0.063,0.0203 -0.094,0.0312 -0.6967,-4.96914 -1.3995,-9.94124 -2.125,-14.90625 -0.3915,-2.33629 -0.8773,-8.66611 -3.6874,-9.6875 -0.7152,-0.25993 -1.3283,-0.36679 -1.875,-0.3125 z m 21.875,0.59375 c -1.4983,-0.0713 -3.0554,0.91233 -3.1563,3.03125 -0.2778,8.60497 -0.3867,17.20344 -0.3437,25.8125 -0.037,7.15326 0.4153,14.2956 1.1562,21.40625 0.073,0.67051 0.1327,1.36221 0.2188,2.03125 0.025,0.19931 0.5463,3.867 0.9062,3.875 6.3135,0.14193 5.5622,0.57594 5.9375,-3.0625 0.084,-5.53738 0.5144,-11.06985 1.625,-16.5 0.3278,-1.42517 0.7713,-2.81006 1.4063,-4.125 1.7173,2.68277 3.126,5.5658 4.5624,8.40625 0.6741,1.511 1.4738,2.94715 2.125,4.46875 0.4418,1.03198 0.8001,2.11404 1.2188,3.15625 0.4687,1.01912 0.6696,2.18939 1.375,3.09375 0.2755,0.35315 0.6269,0.64604 0.9375,0.96875 3.2148,2.59084 6.8513,-1.74831 4,-4.4375 -0.034,-0.0659 -0.067,-0.0881 -0.094,-0.15625 -0.1067,-0.27576 -0.2126,-0.56533 -0.3126,-0.84375 l -0.3437,-0.875 c -1.1062,-2.73767 -2.1496,-5.4898 -3.5625,-8.09375 -1.8044,-3.56687 -3.5391,-7.20652 -5.9062,-10.4375 -0.6548,-0.7173 -1.2814,-1.54121 -2.2188,-1.9375 -1.9436,-0.82171 -3.6488,-0.33647 -5.1562,1 -0.7508,0.85638 -1.3661,1.78355 -1.875,2.75 10e-5,-0.23942 0,-0.47929 0,-0.71875 -0.044,-8.50367 0.073,-17.00029 0.3437,-25.5 0.1009,-2.11892 -1.3455,-3.24115 -2.8437,-3.3125 z m 55.2187,1.78125 c -1.8772,-0.073 -3.776,1.64067 -2.9375,4.15625 1.8663,5.91067 2.8707,12.02267 3.875,18.125 1.2089,7.81484 2.2155,15.69037 2.9688,23.5625 0.081,0.70653 0.162,1.388 0.25,2.09375 0.013,0.10143 0.4097,3.4415 0.6874,3.4375 6.1715,-0.0978 5.6635,0.7014 5.9063,-2.4375 0.024,-4.08957 0.3606,-8.1761 1.3125,-12.15625 0.1838,-0.50018 0.3224,-1.03171 0.5,-1.5625 0.1201,0.1411 0.2351,0.28745 0.3438,0.4375 2.1331,2.94787 3.7711,6.23271 5.4062,9.46875 1.3464,2.3824 2.0531,5.07523 3.5,7.40625 0.4002,0.64484 0.9209,1.23559 1.375,1.84375 2.6132,3.34233 7.332,-0.37642 4.7188,-3.71875 -0.2551,-0.29888 -0.5709,-0.54308 -0.7813,-0.875 -1.456,-2.2971 -2.0623,-5.03441 -3.4375,-7.375 -1.4562,-2.87416 -2.929,-5.70139 -4.6875,-8.40625 -0.9511,-1.46286 -1.868,-2.86749 -3.1563,-4.0625 -0.5329,-0.49441 -1.1681,-0.8767 -1.75,-1.3125 -0.8898,-0.15965 -1.7572,-0.56305 -2.6562,-0.46875 -1.4419,0.15125 -2.4672,1.15132 -3.25,2.40625 -0.4094,-3.08438 -0.836,-6.1757 -1.3125,-9.25 -1.058,-6.41456 -2.1474,-12.85373 -4.125,-19.0625 -0.5031,-1.50934 -1.6237,-2.20618 -2.75,-2.25 z m -77.25,10.03125 c 0.6994,4.84348 1.3814,9.68514 2.0625,14.53125 -0.3119,0.10647 -0.6247,0.2087 -0.9375,0.3125 -2.0797,0.74165 -4.1516,1.50591 -6.2187,2.28125 1.6026,-5.74033 3.2932,-11.44363 5.0937,-17.125 z m 156.7813,6.625 c -0.4278,0.007 -0.8455,0.01 -1.2813,0.0312 -2.8679,0.27026 -5.0876,1.34452 -7.5,2.8125 -3.198,1.98624 -1.039,6.22809 2,5.59375 -1.3372,3.04735 -2.4,6.22013 -3.3437,9.40625 -1.032,3.67095 -1.6199,7.45277 -1.9063,11.25 0.01,3.23782 1.2731,4.87848 3.9063,6.53125 2.2637,1.09237 4.8005,1.45326 7.25,0.75 0.6345,-0.18219 1.2282,-0.47976 1.8437,-0.71875 0.6613,-0.44892 1.3602,-0.82547 1.9687,-1.34375 3.4375,-2.92756 4.7814,-7.39349 5.9688,-11.5625 1.1378,-4.15791 1.736,-8.42857 2.0625,-12.71875 0.021,-2.34569 -0.3785,-4.80385 -1.8437,-6.71875 -0.2619,-0.34231 -0.5851,-0.64995 -0.875,-0.96875 -2.459,-2.02308 -5.2555,-2.3958 -8.25,-2.34375 z m -100.5313,3.46875 c -4.9026,0.20552 -5.1626,5.22356 -5.5,8.9375 -0.2509,6.24095 1.309,12.29386 3.625,18.03125 1.1117,2.25515 2.4206,4.9959 4.9375,6 0.518,0.20665 1.0851,0.26653 1.625,0.40625 0.589,-0.0262 1.1675,-0.003 1.75,-0.0937 3.4855,-0.54356 6.6608,-3.48236 9.2188,-5.6875 0.6848,-0.67608 1.3775,-1.35517 2.0624,-2.03125 3.0125,-2.98756 -1.2063,-7.23756 -4.2187,-4.25 -0.586,0.58436 -1.164,1.16564 -1.75,1.75 -1.472,1.28191 -2.929,2.56209 -4.5937,3.59375 -0.2807,0.1739 -0.5849,0.31141 -0.875,0.46875 -0.1672,0.0711 -0.3452,0.12395 -0.5,0.21875 -0.041,0.0247 -0.043,0.0819 -0.063,0.125 0.029,0.0573 0.062,0.2105 0,0.1875 -0.9621,-0.35818 -1.5699,-2.2165 -2.0312,-2.9375 -1.9872,-4.8521 -3.3633,-9.9928 -3.2188,-15.28125 0.05,-0.66654 0.082,-1.33569 0.1563,-2 0.036,-0.32466 0.069,-0.64685 0.125,-0.96875 1.3984,0.69417 2.69,1.6126 4.0625,2.34375 3.3941,2.54559 6.9878,-2.26691 3.5938,-4.8125 -2.2504,-1.3925 -4.4955,-2.79069 -6.9688,-3.75 -0.4776,-0.0842 -0.953,-0.2703 -1.4375,-0.25 z m 74.7187,0.1875 c -1.639,-0.007 -2.1141,0.31159 -3.5937,0.84375 -2.8338,1.41383 -5.0646,3.60996 -6.9687,6.09375 -1.396,-0.63303 -3.2288,-0.25097 -4.0626,1.75 -1.4955,3.60287 -2.4984,7.36266 -3.2187,11.1875 -0.5001,3.85927 0.1787,7.76643 2.5313,10.9375 0.4178,0.56319 0.9427,1.03631 1.4062,1.5625 2.7421,2.44549 6.3703,4.10018 10.0625,2.71875 0.897,-0.3356 1.6621,-0.91133 2.5,-1.375 0.7574,-0.75056 1.5957,-1.43328 2.2813,-2.25 2.8736,-3.42375 4.6756,-7.83938 5.7812,-12.125 0.2709,-1.05014 0.465,-2.12605 0.6875,-3.1875 0.4591,-3.78331 1.0193,-7.94644 -0.6875,-11.53125 -0.256,-0.53751 -0.6305,-1.02119 -0.9375,-1.53125 -1.4886,-1.68666 -3.4255,-3.08375 -5.7813,-3.09375 z m 26.5626,2.3125 c 1.1039,0.006 2.2059,0.14806 3.2187,0.59375 0.9475,0.5877 0.933,2.04301 1,3 -0.2908,3.89102 -0.8184,7.75887 -1.8437,11.53125 -0.9029,3.21791 -1.7821,6.80314 -4.4688,9.03125 -1.4071,0.66383 -2.2009,0.86833 -3.7188,0.3125 -0.4499,-0.21079 -0.2462,-0.0793 -0.6874,-0.40625 -0.064,-0.032 -0.069,0.2323 -0.125,0.1875 -0.1242,-0.0995 -0.1736,-0.6083 -0.1876,-0.6875 0.248,-3.37437 0.7788,-6.73644 1.6876,-10 1.1612,-3.9625 2.5728,-7.85633 4.4062,-11.5625 0.5104,-0.68057 0.7216,-1.36092 0.7188,-2 z m -101.9376,3.375 c 0.1386,0.0468 0.2704,0.10339 0.4063,0.15625 -0.404,0.0498 -0.4988,0.0798 -0.4063,-0.15625 z m 75,0.21875 c 0.2485,-0.039 0.5145,0.089 1.125,0.4375 1.8288,2.32492 0.9961,5.94198 0.7813,8.625 -0.1784,0.8872 -0.3432,1.77826 -0.5625,2.65625 -1.0005,4.0061 -2.7081,7.86313 -5.4688,10.96875 -0.2756,0.22536 -0.5135,0.49403 -0.8124,0.6875 -1.4266,0.92363 -2.9988,-0.0466 -4.1563,-0.9375 -0.5329,-0.55465 -1.1419,-1.1035 -1.5313,-1.78125 -0.9678,-1.68476 -1.1395,-3.70398 -0.9374,-5.59375 0.4442,-2.39773 1.0225,-4.74942 1.7812,-7.0625 1.3224,0.35232 2.8674,-0.14366 3.5938,-1.9375 0.2069,-0.6635 0.067,-0.28889 0.5312,-1.09375 1.251,-1.76648 2.7737,-3.32977 4.625,-4.46875 0.5442,-0.26369 0.7828,-0.46096 1.0312,-0.5 z m -99.8124,2.875 c 0,0.17941 -0.1457,0.28063 -0.3438,0.34375 0.1014,-0.13392 0.2132,-0.25056 0.3438,-0.34375 z m 60.125,4.21875 c -0.1529,0.14845 -0.2446,0.22065 -0.3438,0.3125 0.058,-0.0813 0.1223,-0.14222 0.1875,-0.21875 0.041,-0.0479 0.2013,-0.13765 0.1563,-0.0937 z m 123.7187,0.53125 c -1.6839,-0.11305 -3.451,1.15936 -3.1875,3.53125 l 0.094,0.78125 c 0.434,4.22039 6.4027,3.59538 5.9687,-0.625 -0.029,-0.27847 -0.065,-0.56529 -0.094,-0.84375 -0.2051,-1.8448 -1.4716,-2.75583 -2.7813,-2.84375 z m -36,2.59375 c -1.1245,0.0779 -2.2303,0.78861 -2.6875,2.3125 -0.5929,2.03464 -1.1436,4.07261 -1.7812,6.09375 -0.094,0.30227 -0.1873,0.60397 -0.2813,0.90625 -1.2587,4.05163 4.46,5.83288 5.7187,1.78125 l 0.2813,-0.875 c 0.6409,-2.04728 1.2156,-4.12697 1.8125,-6.1875 0.7619,-2.53982 -1.1883,-4.1611 -3.0625,-4.03125 z m 18.5625,1.0625 c -1.5,0 -3,1.06618 -3,3.1875 l 0,3.25 c 0,4.24264 6,4.24264 6,0 l 0,-3.25 c 0,-2.12132 -1.5,-3.1875 -3,-3.1875 z m -109.5938,11.5 c 0.1291,0.004 0.1148,0.50214 0.094,0.375 -0.072,-0.43727 -0.076,-0.3066 -0.094,-0.375 z m -61.375,2.78125 c 0.098,0.006 0.087,0.37675 0.063,0.28125 -0.024,-0.0976 -0.041,-0.18527 -0.063,-0.28125 z"
         style="fill:#ff0000;fill-opacity:1;fill-rule:nonzero;stroke:none"
         inkscape:connector-curvature="0" />
      <path
         id="path3529"
         d="m 170.55352,525.20725 c 0.20389,0.10245 0.35759,0.18903 0.4375,0.3125 0.18067,0.27913 -0.23808,-0.0967 -0.34375,-0.1875 -0.0299,-0.061 -0.0705,-0.0904 -0.0937,-0.125 z"
         style="fill:#000000;fill-opacity:1;fill-rule:nonzero;stroke:none"
         inkscape:connector-curvature="0" />
      <path
         id="path3527"
         d="m 366.27227,528.301 c -0.0303,0.0976 -0.0549,0.18659 -0.0937,0.28125 0.0124,-0.0607 0.015,-0.12771 0.0312,-0.1875 0.012,-0.0441 0.0761,-0.13745 0.0625,-0.0937 z"
         style="fill:#000000;fill-opacity:1;fill-rule:nonzero;stroke:none"
         inkscape:connector-curvature="0" />
      <path
         id="path3525"
         d="m 422.30352,561.26975 c 0.069,0.005 0.147,0.0323 0.25,0.0625 0.039,0.0114 0.1337,0.0616 0.094,0.0625 -0.1176,0.003 -0.2256,-0.0683 -0.3437,-0.125 z"
         style="fill:#000000;fill-opacity:1;fill-rule:nonzero;stroke:none"
         inkscape:connector-curvature="0" />
      <path
         id="path3523"
         d="m 420.08482,565.20725 c 0.01,0.007 0.01,0.0215 0,0.0625 -0.065,0.0713 -0.1549,0.13262 -0.2188,0.1875 0.096,-0.15721 0.1964,-0.27181 0.2188,-0.25 z"
         style="fill:#000000;fill-opacity:1;fill-rule:nonzero;stroke:none"
         inkscape:connector-curvature="0" />
      <path
         id="path3518"
         d="m 282.02227,577.9885 c 0.0939,0.0672 0.15006,0.18342 0.21875,0.28125 -0.10128,-0.0729 -0.1742,-0.17602 -0.21875,-0.28125 z"
         style="fill:#000000;fill-opacity:1;fill-rule:nonzero;stroke:none"
         inkscape:connector-curvature="0" />
    </g>
  </g>
</svg>
